<svg width="24" height="24" viewBox="0 0 24 24" fill="none" xmlns="http://www.w3.org/2000/svg">
<path d="M15.5909 5.58589C15.7763 5.40045 15.9964 5.25335 16.2387 5.15299C16.481 5.05263 16.7407 5.00098 17.003 5.00098C17.2652 5.00098 17.5249 5.05263 17.7672 5.15299C18.0095 5.25335 18.2296 5.40045 18.4151 5.58589C18.6005 5.77133 18.7476 5.99149 18.848 6.23378C18.9483 6.47607 19 6.73575 19 6.99801C19 7.26026 18.9483 7.51995 18.848 7.76224C18.7476 8.00453 18.6005 8.22468 18.4151 8.41012L8.88331 17.9419L5 19.001L6.05909 15.1177L15.5909 5.58589Z" stroke="#28293D" stroke-linecap="round" stroke-linejoin="round"/>
</svg>
