<svg width="15" height="15" viewBox="0 0 15 15" fill="none" xmlns="http://www.w3.org/2000/svg">
<g clip-path="url(#clip0_15309_4389)">
<path d="M6.17417 0.550157C6.9064 -0.182073 8.09359 -0.182073 8.82582 0.550157C9.55805 1.28239 9.55805 2.46957 8.82582 3.2018C8.09359 3.93403 6.9064 3.93403 6.17417 3.2018C5.44194 2.46957 5.44194 1.28239 6.17417 0.550157Z" fill="#8F90A6"/>
<path d="M6.17417 6.17516C6.9064 5.44293 8.09359 5.44293 8.82582 6.17516C9.55805 6.90739 9.55805 8.09457 8.82582 8.8268C8.09359 9.55903 6.9064 9.55903 6.17417 8.8268C5.44194 8.09457 5.44194 6.90739 6.17417 6.17516Z" fill="#8F90A6"/>
<path d="M6.17417 11.8002C6.9064 11.0679 8.09359 11.0679 8.82582 11.8002C9.55805 12.5324 9.55805 13.7196 8.82582 14.4518C8.09359 15.184 6.9064 15.184 6.17417 14.4518C5.44194 13.7196 5.44194 12.5324 6.17417 11.8002Z" fill="#8F90A6"/>
</g>
<defs>
<clipPath id="clip0_15309_4389">
<rect width="15" height="15" fill="white" transform="translate(0 15.001) rotate(-90)"/>
</clipPath>
</defs>
</svg>
